<?xml version="1.0" encoding="utf-8"?><svg viewBox="0 0 20 20" xmlns="http://www.w3.org/2000/svg" xmlns:xlink="http://www.w3.org/1999/xlink"><style>:root>svg{display:none}:root>svg:target{display:block}</style><svg viewBox="0 0 0 0" id="sprite" xmlns="http://www.w3.org/2000/svg"/><svg viewBox="0 0 20 20" id="star-empty-icon" xmlns="http://www.w3.org/2000/svg"><path fill-rule="evenodd" clip-rule="evenodd" d="M9.167 2.659a.9.9 0 011.716 0l1.55 4.766h5a.908.908 0 01.534 1.667l-4.059 2.942 1.55 4.775a.9.9 0 01-1.391 1.008L10 14.842l-4.058 2.95a.9.9 0 01-1.392-1.008l1.55-4.775-4.058-2.942A.908.908 0 012.575 7.4h5l1.592-4.74z"/></svg><svg viewBox="0 0 20 20" id="star-full-icon" xmlns="http://www.w3.org/2000/svg"><path fill-rule="evenodd" clip-rule="evenodd" d="M9.167 2.659a.9.9 0 011.716 0l1.55 4.766h5a.908.908 0 01.534 1.667l-4.059 2.942 1.55 4.775a.9.9 0 01-1.391 1.008L10 14.842l-4.058 2.95a.9.9 0 01-1.392-1.008l1.55-4.775-4.058-2.942A.908.908 0 012.575 7.4h5l1.592-4.74z"/></svg></svg>